<svg xmlns="http://www.w3.org/2000/svg" version="1.0" preserveAspectRatio="xMidYMid meet" viewBox="135.13 230.38 672.84 453.8">  <g transform="translate(0.000000,900.000000) scale(0.100000,-0.100000)" fill="#ff3d00" stroke="none"> <path d="M6613 6690 c-12 -5 -50 -12 -85 -15 -35 -4 -82 -13 -106 -21 -23 -8 -57 -14 -75 -14 -18 0 -41 -7 -51 -15 -11 -8 -28 -15 -38 -15 -10 0 -26 -4 -36 -9 -15 -9 -85 -40 -122 -56 -20 -8 -49 -26 -87 -52 -17 -13 -34 -23 -38 -23 -4 0 -39 -21 -78 -47 -39 -27 -76 -50 -82 -53 -5 -3 -37 -23 -70 -44 -33 -21 -82 -53 -110 -71 -27 -17 -90 -58 -138 -89 -49 -32 -96 -60 -105 -63 -10 -4 -19 -9 -22 -12 -10 -12 -115 -81 -124 -81 -4 0 -25 -12 -45 -27 -20 -16 -52 -37 -71 -47 -19 -11 -37 -22 -40 -26 -3 -3 -23 -17 -45 -30 -22 -13 -42 -27 -45 -30 -3 -4 -17 -13 -32 -21 -105 -54 -304 -239 -373 -346 -21 -32 -50 -77 -66 -100 -16 -23 -29 -47 -29 -53 0 -7 -6 -24 -14 -38 -26 -52 -46 -103 -46 -120 0 -10 -7 -27 -15 -38 -8 -10 -15 -37 -15 -59 -1 -22 -7 -58 -15 -80 -18 -48 -21 -385 -5 -415 6 -11 13 -47 16 -82 4 -35 11 -68 15 -74 5 -6 17 -37 28 -70 11 -32 26 -72 34 -89 24 -47 29 -97 13 -125 -8 -14 -26 -48 -40 -77 -14 -28 -31 -55 -36 -58 -6 -3 -10 -15 -10 -27 0 -11 -6 -34 -14 -51 -7 -18 -20 -57 -29 -87 -8 -30 -20 -75 -27 -100 -16 -55 -25 -426 -11 -443 5 -7 12 -30 16 -52 9 -53 34 -142 51 -182 8 -17 14 -40 14 -51 0 -12 4 -23 8 -26 5 -3 27 -43 50 -89 23 -45 50 -92 60 -102 10 -11 28 -37 40 -57 42 -69 136 -168 247 -263 146 -124 330 -217 530 -267 44 -10 102 -26 128 -34 62 -20 395 -21 429 -3 13 7 43 16 68 20 66 11 144 30 155 39 6 4 24 10 40 14 28 7 124 51 170 79 58 35 290 182 327 208 15 11 32 19 39 19 6 0 27 14 46 30 18 17 37 30 41 30 5 0 58 33 120 73 61 39 150 97 198 127 134 85 248 158 259 167 6 5 28 20 50 33 22 13 46 30 53 37 7 7 18 13 23 13 11 0 88 61 153 120 21 19 63 67 94 105 31 39 60 72 64 73 4 2 8 9 8 16 0 7 9 23 20 36 11 13 20 27 20 32 0 6 10 24 23 41 23 33 26 40 77 177 39 105 51 150 45 171 -3 8 2 37 10 65 18 58 21 288 4 331 -6 15 -12 55 -15 88 -2 33 -10 74 -18 90 -8 17 -22 55 -31 85 -10 30 -30 80 -45 110 l-27 56 23 44 c13 25 35 70 50 100 15 30 30 57 34 60 4 3 11 21 15 40 4 19 11 40 15 45 8 9 20 59 40 166 5 26 13 64 19 85 14 50 14 264 1 300 -6 15 -15 52 -20 83 -13 83 -31 155 -41 166 -5 5 -9 18 -9 28 0 27 -97 221 -149 297 -41 61 -59 83 -136 171 -61 68 -218 200 -265 222 -8 4 -33 18 -55 30 -112 64 -233 117 -265 117 -10 0 -23 7 -30 15 -7 8 -29 15 -50 15 -21 0 -60 6 -86 14 -111 33 -311 53 -351 36z m102 -495 c33 -2 69 1 79 5 19 7 38 4 124 -21 20 -5 51 -14 67 -18 17 -4 48 -16 70 -25 146 -64 249 -144 350 -271 22 -27 43 -52 47 -55 3 -3 10 -18 13 -33 4 -15 10 -27 14 -27 7 0 23 -33 67 -137 8 -17 14 -51 14 -75 0 -24 5 -49 11 -55 7 -7 9 -49 5 -119 -7 -153 -14 -202 -39 -256 -25 -56 -44 -60 -91 -22 -39 32 -166 114 -177 114 -5 0 -34 14 -64 30 -30 17 -64 30 -74 30 -10 0 -24 6 -30 14 -6 7 -30 16 -54 19 -57 8 -77 34 -77 103 0 105 -54 177 -158 208 -59 18 -64 18 -127 1 -36 -9 -65 -21 -65 -26 0 -5 -5 -9 -12 -9 -6 0 -44 -22 -85 -50 -40 -27 -76 -50 -79 -50 -4 0 -23 -13 -44 -30 -21 -16 -41 -30 -44 -30 -7 0 -76 -44 -251 -159 -38 -25 -77 -50 -86 -56 -59 -35 -196 -121 -204 -128 -15 -12 -116 -77 -121 -77 -2 0 -23 -13 -46 -30 -22 -16 -46 -30 -53 -30 -6 0 -31 -20 -56 -44 -53 -53 -70 -117 -57 -206 7 -47 15 -62 56 -102 26 -26 54 -47 63 -48 8 0 24 -7 35 -15 22 -17 96 -20 122 -5 9 5 28 15 42 20 14 6 39 19 55 30 17 11 39 24 50 29 11 5 30 19 42 30 12 12 25 21 29 21 3 0 45 26 92 57 48 32 95 62 104 68 9 5 45 27 78 48 34 20 66 37 72 37 6 0 29 9 52 19 84 39 128 46 276 45 80 0 161 -3 180 -6 59 -10 112 -26 123 -37 6 -6 17 -11 25 -11 49 0 219 -111 304 -197 80 -83 188 -247 188 -287 0 -7 6 -26 14 -42 22 -45 46 -176 46 -251 -1 -73 -31 -228 -49 -246 -6 -6 -11 -19 -11 -29 0 -43 -79 -165 -170 -261 -37 -40 -152 -127 -195 -147 -5 -3 -37 -23 -70 -44 -33 -21 -91 -59 -130 -84 -38 -25 -103 -67 -143 -93 -41 -27 -80 -49 -88 -49 -8 0 -14 -4 -14 -10 0 -7 -67 -52 -158 -105 -10 -5 -32 -20 -49 -32 -17 -13 -35 -23 -40 -23 -6 0 -18 -9 -28 -20 -10 -11 -23 -20 -29 -20 -6 0 -29 -14 -50 -30 -22 -17 -44 -30 -49 -30 -5 0 -26 -14 -47 -30 -21 -17 -43 -30 -49 -30 -6 0 -11 -4 -11 -9 0 -5 -12 -14 -27 -20 -16 -6 -59 -29 -98 -51 -38 -21 -80 -39 -91 -39 -12 -1 -39 -9 -60 -18 -58 -26 -368 -26 -407 0 -14 9 -36 17 -48 17 -37 0 -140 49 -229 109 -64 43 -172 146 -223 212 -43 57 -117 207 -123 252 -3 23 -12 59 -20 80 -17 44 -19 213 -3 272 6 22 15 63 21 90 17 88 52 106 109 55 19 -16 38 -30 43 -30 6 0 19 -8 30 -19 35 -31 172 -98 269 -132 51 -17 98 -37 106 -45 8 -7 18 -45 22 -84 9 -82 32 -125 92 -172 38 -31 47 -33 125 -35 94 -3 63 -18 292 133 91 60 108 70 140 84 14 6 34 19 45 29 11 10 49 35 84 57 35 21 74 46 86 54 13 8 45 28 72 44 26 16 91 57 143 91 52 34 124 80 160 103 36 22 70 45 75 49 6 5 28 19 50 32 47 28 113 95 125 126 4 12 7 39 6 61 -2 21 -3 55 -4 75 -2 27 -12 46 -44 80 -61 63 -97 79 -177 79 -80 0 -100 -10 -361 -181 -41 -27 -82 -52 -90 -56 -8 -3 -29 -17 -45 -29 -17 -12 -41 -28 -55 -34 -14 -6 -45 -22 -70 -35 -25 -14 -52 -25 -60 -25 -9 0 -21 -5 -27 -11 -7 -7 -42 -15 -80 -20 -37 -4 -91 -12 -120 -17 -28 -4 -78 -4 -110 0 -32 5 -85 13 -118 17 -202 29 -427 184 -559 385 -30 45 -57 97 -61 116 -4 19 -12 38 -17 41 -11 7 -25 60 -40 144 -12 72 -4 313 11 328 6 6 11 20 11 32 0 12 7 30 15 41 8 10 15 25 15 33 0 33 99 176 165 239 70 68 172 141 255 184 14 7 34 21 44 30 11 10 51 37 90 60 39 23 85 52 102 65 17 13 35 23 41 23 5 0 18 9 28 20 10 11 23 20 29 20 6 0 29 14 50 30 22 17 43 30 48 30 5 0 14 5 21 11 15 13 127 86 209 136 35 21 65 40 68 43 3 4 23 17 45 30 22 13 76 47 120 76 44 28 91 55 105 59 14 4 27 11 30 15 8 11 127 50 153 50 13 0 27 4 33 9 12 12 55 20 74 13 8 -3 42 -6 75 -7z"/> <path d="M1610 6650 c-140 -3 -256 -7 -258 -8 -1 -1 -1 -176 0 -389 l3 -388 630 -2 c461 -2 636 -6 653 -15 l22 -11 0 -1839 0 -1838 435 0 435 0 0 1840 c0 1808 0 1839 19 1850 13 6 236 10 655 10 l636 0 0 389 c0 215 -3 392 -7 394 -14 8 -2956 15 -3223 7z"/> </g> </svg>